G04*
G04 #@! TF.GenerationSoftware,Altium Limited,Altium Designer,18.0.11 (651)*
G04*
G04 Layer_Color=8421504*
%FSLAX25Y25*%
%MOIN*%
G70*
G01*
G75*
%ADD17R,0.01575X0.01575*%
%ADD18R,0.04331X0.05512*%
%ADD19R,0.02559X0.04528*%
%ADD20R,0.04528X0.02559*%
%ADD21R,0.09055X0.09055*%
%ADD22R,0.09055X0.09055*%
%ADD23R,0.01575X0.05315*%
%ADD24R,0.07087X0.07480*%
D17*
X306300Y244807D02*
D03*
X301280D02*
D03*
X314666Y261539D02*
D03*
Y258193D02*
D03*
Y254846D02*
D03*
Y251500D02*
D03*
Y248154D02*
D03*
Y244807D02*
D03*
X317225Y264098D02*
D03*
Y259866D02*
D03*
Y256520D02*
D03*
Y253173D02*
D03*
Y249827D02*
D03*
Y246480D02*
D03*
Y243134D02*
D03*
Y238311D02*
D03*
Y233488D02*
D03*
X312993Y264098D02*
D03*
X311320Y261539D02*
D03*
X307973D02*
D03*
X304627D02*
D03*
X301280D02*
D03*
X297934D02*
D03*
X295375Y259866D02*
D03*
Y256520D02*
D03*
X297934Y254846D02*
D03*
X309646Y264098D02*
D03*
X306300D02*
D03*
X302954D02*
D03*
X299607D02*
D03*
X295375D02*
D03*
X297934Y258193D02*
D03*
X295375Y253173D02*
D03*
Y249827D02*
D03*
Y246480D02*
D03*
Y243134D02*
D03*
Y233488D02*
D03*
X311320Y251500D02*
D03*
X306300Y258193D02*
D03*
X301280Y251500D02*
D03*
X297934D02*
D03*
Y248154D02*
D03*
Y244807D02*
D03*
X295375Y238311D02*
D03*
X311320Y244807D02*
D03*
Y258193D02*
D03*
X301280D02*
D03*
D18*
X283706Y268000D02*
D03*
X277800D02*
D03*
X283800Y279500D02*
D03*
X277894D02*
D03*
X278494Y314800D02*
D03*
X284400D02*
D03*
X318694Y290300D02*
D03*
X324600D02*
D03*
X337953Y290200D02*
D03*
X332047D02*
D03*
X371753Y320500D02*
D03*
X365847D02*
D03*
X343600Y318600D02*
D03*
X337694D02*
D03*
D19*
X285040Y290980D02*
D03*
X277560D02*
D03*
Y301020D02*
D03*
X281300D02*
D03*
X285040D02*
D03*
D20*
X346780Y298260D02*
D03*
Y305740D02*
D03*
X356820D02*
D03*
Y302000D02*
D03*
Y298260D02*
D03*
D21*
X371800Y336000D02*
D03*
X354083D02*
D03*
D22*
X322800Y322083D02*
D03*
Y339800D02*
D03*
D23*
X289772Y327786D02*
D03*
X292331D02*
D03*
X294891D02*
D03*
X287213D02*
D03*
X284654D02*
D03*
D24*
X294300Y339400D02*
D03*
X285245D02*
D03*
M02*
