G04*
G04 #@! TF.GenerationSoftware,Altium Limited,Altium Designer,18.0.11 (651)*
G04*
G04 Layer_Color=16711935*
%FSLAX25Y25*%
%MOIN*%
G70*
G01*
G75*
%ADD25R,0.10500X0.05000*%
%ADD26R,0.05000X0.10500*%
%ADD27R,0.02375X0.02375*%
%ADD28R,0.05131X0.06312*%
%ADD29R,0.03359X0.05328*%
%ADD30C,0.03950*%
%ADD31R,0.05328X0.03359*%
%ADD32R,0.09855X0.09855*%
%ADD33R,0.09855X0.09855*%
%ADD34R,0.02375X0.06115*%
%ADD35R,0.07887X0.08280*%
%ADD36C,0.16548*%
%ADD37R,0.06706X0.06706*%
%ADD38C,0.06706*%
%ADD39C,0.04737*%
%ADD40C,0.10249*%
%ADD41R,0.06706X0.06706*%
G04:AMPARAMS|DCode=42|XSize=82.8mil|YSize=90.68mil|CornerRadius=22.7mil|HoleSize=0mil|Usage=FLASHONLY|Rotation=270.000|XOffset=0mil|YOffset=0mil|HoleType=Round|Shape=RoundedRectangle|*
%AMROUNDEDRECTD42*
21,1,0.08280,0.04528,0,0,270.0*
21,1,0.03740,0.09068,0,0,270.0*
1,1,0.04540,-0.02264,-0.01870*
1,1,0.04540,-0.02264,0.01870*
1,1,0.04540,0.02264,0.01870*
1,1,0.04540,0.02264,-0.01870*
%
%ADD42ROUNDEDRECTD42*%
%ADD43O,0.04147X0.04540*%
D25*
X281550Y301000D02*
D03*
D26*
X356800Y301750D02*
D03*
D27*
X306300Y244807D02*
D03*
X301280D02*
D03*
X314666Y261539D02*
D03*
Y258193D02*
D03*
Y254846D02*
D03*
Y251500D02*
D03*
Y248154D02*
D03*
Y244807D02*
D03*
X317225Y264098D02*
D03*
Y259866D02*
D03*
Y256520D02*
D03*
Y253173D02*
D03*
Y249827D02*
D03*
Y246480D02*
D03*
Y243134D02*
D03*
Y238311D02*
D03*
Y233488D02*
D03*
X312993Y264098D02*
D03*
X311320Y261539D02*
D03*
X307973D02*
D03*
X304627D02*
D03*
X301280D02*
D03*
X297934D02*
D03*
X295375Y259866D02*
D03*
Y256520D02*
D03*
X297934Y254846D02*
D03*
X309646Y264098D02*
D03*
X306300D02*
D03*
X302954D02*
D03*
X299607D02*
D03*
X295375D02*
D03*
X297934Y258193D02*
D03*
X295375Y253173D02*
D03*
Y249827D02*
D03*
Y246480D02*
D03*
Y243134D02*
D03*
Y233488D02*
D03*
X311320Y251500D02*
D03*
X306300Y258193D02*
D03*
X301280Y251500D02*
D03*
X297934D02*
D03*
Y248154D02*
D03*
Y244807D02*
D03*
X295375Y238311D02*
D03*
X311320Y244807D02*
D03*
Y258193D02*
D03*
X301280D02*
D03*
D28*
X283706Y268000D02*
D03*
X277800D02*
D03*
X283800Y279500D02*
D03*
X277894D02*
D03*
X278494Y314800D02*
D03*
X284400D02*
D03*
X318694Y290300D02*
D03*
X324600D02*
D03*
X337953Y290200D02*
D03*
X332047D02*
D03*
X371753Y320500D02*
D03*
X365847D02*
D03*
X343600Y318600D02*
D03*
X337694D02*
D03*
D29*
X285040Y290980D02*
D03*
X277560D02*
D03*
Y301020D02*
D03*
X281300D02*
D03*
X285040D02*
D03*
D30*
X360400Y250500D02*
D03*
Y255500D02*
D03*
Y260500D02*
D03*
Y265500D02*
D03*
Y270500D02*
D03*
X355400D02*
D03*
Y265500D02*
D03*
Y260500D02*
D03*
Y255500D02*
D03*
Y250500D02*
D03*
D31*
X346780Y298260D02*
D03*
Y305740D02*
D03*
X356820D02*
D03*
Y302000D02*
D03*
Y298260D02*
D03*
D32*
X371800Y336000D02*
D03*
X354083D02*
D03*
D33*
X322800Y322083D02*
D03*
Y339800D02*
D03*
D34*
X289772Y327786D02*
D03*
X292331D02*
D03*
X294891D02*
D03*
X287213D02*
D03*
X284654D02*
D03*
D35*
X294300Y339400D02*
D03*
X285245D02*
D03*
D36*
X275900Y243200D02*
D03*
D37*
X332800Y304500D02*
D03*
D38*
X322800D02*
D03*
X312800D02*
D03*
X302800D02*
D03*
X371800Y295500D02*
D03*
D39*
X357900Y245500D02*
D03*
X361900Y275500D02*
D03*
X353900D02*
D03*
D40*
X347900Y245500D02*
D03*
Y268000D02*
D03*
X367900Y245500D02*
D03*
Y268000D02*
D03*
D41*
X371800Y305500D02*
D03*
D42*
X275402Y340109D02*
D03*
X304142D02*
D03*
D43*
X298532Y327589D02*
D03*
X281013D02*
D03*
M02*
