M48
;Layer_Color=9474304
;FILE_FORMAT=2:5
INCH,LZ
;TYPE=PLATED
T1F00S00C0.01378
T2F00S00C0.03543
T3F00S00C0.03937
T4F00S00C0.09449
T5F00S00C0.11811
;TYPE=NON_PLATED
%
T01
X02902Y02461
X03063Y02483
X03061Y02517
X03045Y02556
X03109Y02484
X03256Y02456
X03313Y02556
X033071Y026239
X0334Y02655
X03351Y02599
X03391Y0252
X03461Y0276
X03648Y02605
X03063Y02705
X03079Y03193
X03113Y0332
X03757Y02735
T02
X03028Y03045
X03128
X03228
X03328
X03718Y03055
Y02955
T03
X03579Y02455
X03619Y02755
X03539
T04
X03479Y02455
X03679
Y0268
X03479
T05
X02759Y02432
M30
