G04*
G04 #@! TF.GenerationSoftware,Altium Limited,Altium Designer,18.0.11 (651)*
G04*
G04 Layer_Color=32768*
%FSLAX25Y25*%
%MOIN*%
G70*
G01*
G75*
%ADD13C,0.00787*%
%ADD54C,0.00394*%
%ADD55C,0.00197*%
D13*
X280300Y296000D02*
X282300D01*
X281300Y295000D02*
Y297000D01*
X351800Y301000D02*
Y303000D01*
X350800Y302000D02*
X352800D01*
D54*
X286265Y264850D02*
Y271150D01*
X275241Y264850D02*
Y271150D01*
Y264850D02*
X286265D01*
X275241Y271150D02*
X286265D01*
X278784Y268000D02*
X282721D01*
X280753Y266031D02*
Y269968D01*
X286359Y276350D02*
Y282650D01*
X275335Y276350D02*
Y282650D01*
Y276350D02*
X286359D01*
X275335Y282650D02*
X286359D01*
X278879Y279500D02*
X282816D01*
X280847Y277531D02*
Y281469D01*
X275935Y311650D02*
Y317950D01*
X286959Y311650D02*
Y317950D01*
X275935D02*
X286959D01*
X275935Y311650D02*
X286959D01*
X279479Y314800D02*
X283416D01*
X281447Y312832D02*
Y316769D01*
X316135Y287150D02*
Y293450D01*
X327159Y287150D02*
Y293450D01*
X316135D02*
X327159D01*
X316135Y287150D02*
X327159D01*
X319679Y290300D02*
X323616D01*
X321647Y288332D02*
Y292269D01*
X340512Y287050D02*
Y293350D01*
X329488Y287050D02*
Y293350D01*
Y287050D02*
X340512D01*
X329488Y293350D02*
X340512D01*
X333031Y290200D02*
X336968D01*
X335000Y288231D02*
Y292169D01*
X374312Y317350D02*
Y323650D01*
X363288Y317350D02*
Y323650D01*
Y317350D02*
X374312D01*
X363288Y323650D02*
X374312D01*
X366831Y320500D02*
X370768D01*
X368800Y318531D02*
Y322468D01*
X346159Y315450D02*
Y321750D01*
X335135Y315450D02*
Y321750D01*
Y315450D02*
X346159D01*
X335135Y321750D02*
X346159D01*
X338679Y318600D02*
X342616D01*
X340647Y316631D02*
Y320569D01*
D55*
X319883Y230929D02*
Y266756D01*
X292717Y230929D02*
Y266756D01*
X319883D01*
X292717Y230929D02*
X319883D01*
M02*
