G04*
G04 #@! TF.GenerationSoftware,Altium Limited,Altium Designer,18.0.11 (651)*
G04*
G04 Layer_Color=16711935*
%FSLAX25Y25*%
%MOIN*%
G70*
G01*
G75*
%ADD11C,0.00598*%
%ADD14C,0.00600*%
%ADD54C,0.00394*%
D11*
X352900Y280500D02*
G03*
X350400Y278000I0J-2500D01*
G01*
X365400D02*
G03*
X362900Y280500I-2500J0D01*
G01*
X355900Y241500D02*
G03*
X359900Y241500I2000J1500D01*
G01*
X350400Y250500D02*
G03*
X350900Y249000I2500J0D01*
G01*
X364900D02*
G03*
X365400Y250500I-2000J1500D01*
G01*
D14*
X371424Y265067D02*
Y270972D01*
X377329D01*
Y265067D02*
Y270972D01*
X371424Y265067D02*
X377329D01*
X371424Y242626D02*
X377329D01*
Y248531D01*
X371424D02*
X377329D01*
X371424Y242626D02*
Y248531D01*
X338353Y242626D02*
X344258D01*
Y248531D01*
X338353D02*
X344258D01*
X338353Y242626D02*
Y248531D01*
Y265067D02*
X344258D01*
Y270972D01*
X338353D02*
X344258D01*
X338353Y265067D02*
Y270972D01*
X342900Y280500D02*
X357900D01*
X342900Y240500D02*
Y280500D01*
Y240500D02*
X372900D01*
Y280500D01*
X357900D02*
X372900D01*
X348900Y285000D02*
X366900D01*
X348900Y280500D02*
Y285000D01*
X366900Y280500D02*
Y285000D01*
Y236000D02*
Y240500D01*
X348900Y236000D02*
X366900D01*
X348900D02*
Y240500D01*
X350400Y250500D02*
Y278000D01*
X365400Y250500D02*
Y278000D01*
X350900Y249000D02*
X355900Y241500D01*
X359900D02*
X364900Y249000D01*
D54*
X362154Y336000D02*
X363729D01*
X362942Y335213D02*
Y336787D01*
X322800Y330154D02*
Y331729D01*
X322013Y330942D02*
X323587D01*
X263300Y230500D02*
X381300D01*
Y348500D01*
X263300Y230500D02*
Y348500D01*
X381300D01*
M02*
