G04*
G04 #@! TF.GenerationSoftware,Altium Limited,Altium Designer,18.0.11 (651)*
G04*
G04 Layer_Physical_Order=1*
G04 Layer_Color=255*
%FSLAX25Y25*%
%MOIN*%
G70*
G01*
G75*
%ADD16C,0.00591*%
%ADD17R,0.01575X0.01575*%
%ADD18R,0.04331X0.05512*%
%ADD19R,0.02559X0.04528*%
%ADD20R,0.04528X0.02559*%
%ADD21R,0.09055X0.09055*%
%ADD22R,0.09055X0.09055*%
%ADD23R,0.01575X0.05315*%
%ADD24R,0.07087X0.07480*%
%ADD44C,0.03150*%
%ADD45C,0.15748*%
%ADD46R,0.05906X0.05906*%
%ADD47C,0.05906*%
%ADD48C,0.03937*%
%ADD49C,0.09449*%
%ADD50R,0.05906X0.05906*%
G04:AMPARAMS|DCode=51|XSize=74.8mil|YSize=82.68mil|CornerRadius=18.7mil|HoleSize=0mil|Usage=FLASHONLY|Rotation=270.000|XOffset=0mil|YOffset=0mil|HoleType=Round|Shape=RoundedRectangle|*
%AMROUNDEDRECTD51*
21,1,0.07480,0.04528,0,0,270.0*
21,1,0.03740,0.08268,0,0,270.0*
1,1,0.03740,-0.02264,-0.01870*
1,1,0.03740,-0.02264,0.01870*
1,1,0.03740,0.02264,0.01870*
1,1,0.03740,0.02264,-0.01870*
%
%ADD51ROUNDEDRECTD51*%
%ADD52O,0.03347X0.03740*%
%ADD53C,0.02756*%
G36*
X381300Y348400D02*
Y230500D01*
X316500D01*
Y231701D01*
X316725D01*
Y233488D01*
Y235276D01*
X316500D01*
Y236524D01*
X316725D01*
Y238311D01*
Y240098D01*
X316500D01*
Y241346D01*
X316725D01*
Y243134D01*
X317225D01*
Y243634D01*
X319013D01*
Y243904D01*
X320219D01*
X332261Y231861D01*
X332554Y231666D01*
X332900Y231597D01*
X332900Y231597D01*
X375800D01*
X376146Y231666D01*
X376439Y231861D01*
X379839Y235261D01*
X379839Y235261D01*
X380034Y235554D01*
X380103Y235900D01*
X380103Y235900D01*
Y254800D01*
X380034Y255146D01*
X379839Y255439D01*
X376739Y258539D01*
X376446Y258734D01*
X376100Y258803D01*
X366635D01*
X366368Y259303D01*
X366654Y259732D01*
X366807Y260500D01*
X366654Y261268D01*
X366219Y261919D01*
X365568Y262354D01*
X364800Y262507D01*
X364692Y262486D01*
X362453Y264724D01*
X362608Y265500D01*
X362577Y265656D01*
X363057Y265802D01*
X363257Y265320D01*
X364109Y264209D01*
X365220Y263357D01*
X366512Y262822D01*
X367900Y262639D01*
X369287Y262822D01*
X370580Y263357D01*
X371691Y264209D01*
X372543Y265320D01*
X373078Y266613D01*
X373261Y268000D01*
X373078Y269388D01*
X372543Y270680D01*
X371691Y271791D01*
X371148Y272207D01*
X371318Y272707D01*
X373862D01*
X374281Y272081D01*
X374932Y271646D01*
X375700Y271493D01*
X376468Y271646D01*
X377119Y272081D01*
X377554Y272732D01*
X377707Y273500D01*
X377554Y274268D01*
X377119Y274919D01*
X376468Y275354D01*
X375700Y275507D01*
X374932Y275354D01*
X374281Y274919D01*
X374010Y274513D01*
X365576D01*
X365230Y274445D01*
X364937Y274249D01*
X364329Y273640D01*
X363952Y273970D01*
X364135Y274209D01*
X364393Y274832D01*
X364481Y275500D01*
X364393Y276168D01*
X364135Y276791D01*
X363725Y277325D01*
X363191Y277735D01*
X362568Y277993D01*
X361900Y278081D01*
X361232Y277993D01*
X360609Y277735D01*
X360075Y277325D01*
X359665Y276791D01*
X359407Y276168D01*
X359319Y275500D01*
X359407Y274832D01*
X359665Y274209D01*
X360075Y273675D01*
X360609Y273265D01*
X361022Y273094D01*
X360876Y272613D01*
X360400Y272708D01*
X359555Y272540D01*
X358839Y272061D01*
X358360Y271345D01*
X358192Y270500D01*
X358360Y269655D01*
X358839Y268939D01*
X359555Y268460D01*
X360400Y268292D01*
X361245Y268460D01*
X361961Y268939D01*
X362207Y269307D01*
X362687Y269126D01*
X362539Y268000D01*
X362687Y266874D01*
X362207Y266693D01*
X361961Y267061D01*
X361245Y267540D01*
X360400Y267708D01*
X359555Y267540D01*
X358839Y267061D01*
X358360Y266345D01*
X358192Y265500D01*
X358360Y264655D01*
X358839Y263939D01*
X359555Y263460D01*
X360400Y263292D01*
X361176Y263447D01*
X361959Y262664D01*
X361640Y262276D01*
X361245Y262540D01*
X360400Y262708D01*
X359555Y262540D01*
X358839Y262061D01*
X358360Y261345D01*
X358192Y260500D01*
X358360Y259655D01*
X358839Y258939D01*
X359555Y258460D01*
X360400Y258292D01*
X361176Y258447D01*
X361959Y257664D01*
X361640Y257276D01*
X361245Y257540D01*
X360400Y257708D01*
X359555Y257540D01*
X358839Y257061D01*
X358360Y256345D01*
X358192Y255500D01*
X358360Y254655D01*
X358839Y253939D01*
X359555Y253460D01*
X360400Y253292D01*
X361245Y253460D01*
X361961Y253939D01*
X362401Y254597D01*
X374226D01*
X375697Y253126D01*
Y250688D01*
X375197Y250481D01*
X373928Y251749D01*
X373635Y251945D01*
X373290Y252013D01*
X361993D01*
X361961Y252061D01*
X361245Y252540D01*
X360400Y252708D01*
X359555Y252540D01*
X358839Y252061D01*
X358370Y251360D01*
X358277Y251341D01*
X357846Y251323D01*
X357649Y251799D01*
X357236Y252336D01*
X356698Y252749D01*
X356223Y252946D01*
X356241Y253377D01*
X356260Y253470D01*
X356961Y253939D01*
X357440Y254655D01*
X357608Y255500D01*
X357440Y256345D01*
X356961Y257061D01*
X356245Y257540D01*
X355400Y257708D01*
X354555Y257540D01*
X353839Y257061D01*
X353399Y256403D01*
X347874D01*
X345181Y259097D01*
X345388Y259597D01*
X353399D01*
X353839Y258939D01*
X354555Y258460D01*
X355400Y258292D01*
X356245Y258460D01*
X356961Y258939D01*
X357440Y259655D01*
X357608Y260500D01*
X357440Y261345D01*
X356961Y262061D01*
X356245Y262540D01*
X355400Y262708D01*
X354555Y262540D01*
X354160Y262276D01*
X353841Y262664D01*
X354624Y263447D01*
X355400Y263292D01*
X356245Y263460D01*
X356961Y263939D01*
X357440Y264655D01*
X357608Y265500D01*
X357440Y266345D01*
X356961Y267061D01*
X356245Y267540D01*
X355400Y267708D01*
X354555Y267540D01*
X353839Y267061D01*
X353593Y266693D01*
X353113Y266874D01*
X353261Y268000D01*
X353113Y269126D01*
X353593Y269307D01*
X353839Y268939D01*
X354555Y268460D01*
X355400Y268292D01*
X356245Y268460D01*
X356961Y268939D01*
X357440Y269655D01*
X357608Y270500D01*
X357440Y271345D01*
X356961Y272061D01*
X356245Y272540D01*
X355400Y272708D01*
X354924Y272613D01*
X354778Y273094D01*
X355191Y273265D01*
X355725Y273675D01*
X356135Y274209D01*
X356393Y274832D01*
X356481Y275500D01*
X356393Y276168D01*
X356135Y276791D01*
X355725Y277325D01*
X355191Y277735D01*
X354568Y277993D01*
X353900Y278081D01*
X353232Y277993D01*
X352609Y277735D01*
X352075Y277325D01*
X351665Y276791D01*
X351407Y276168D01*
X351319Y275500D01*
X351354Y275230D01*
X350881Y274996D01*
X349239Y276639D01*
X348946Y276834D01*
X348600Y276903D01*
X347864D01*
X347519Y277419D01*
X346868Y277854D01*
X346100Y278007D01*
X345332Y277854D01*
X344681Y277419D01*
X344246Y276768D01*
X344093Y276000D01*
X344246Y275232D01*
X344681Y274581D01*
X345332Y274146D01*
X346100Y273993D01*
X346868Y274146D01*
X347519Y274581D01*
X347779Y274969D01*
X348317Y275006D01*
X349827Y273496D01*
X349543Y273072D01*
X349288Y273178D01*
X347900Y273361D01*
X346513Y273178D01*
X345220Y272643D01*
X344109Y271791D01*
X343257Y270680D01*
X342722Y269388D01*
X342539Y268000D01*
X342722Y266613D01*
X342417Y266185D01*
X342365Y266168D01*
X342116Y266334D01*
X341770Y266403D01*
X335764D01*
X335419Y266919D01*
X334768Y267354D01*
X334000Y267507D01*
X333232Y267354D01*
X332581Y266919D01*
X332146Y266268D01*
X331993Y265500D01*
X332146Y264732D01*
X332581Y264081D01*
X332769Y263955D01*
X332631Y263446D01*
X332382Y263431D01*
X332129Y263809D01*
X331478Y264244D01*
X330710Y264397D01*
X330101Y264276D01*
X303703Y290674D01*
Y301045D01*
X303725Y301048D01*
X304587Y301405D01*
X305327Y301973D01*
X305895Y302713D01*
X306252Y303575D01*
X306374Y304500D01*
X306252Y305425D01*
X305895Y306287D01*
X305327Y307027D01*
X304587Y307595D01*
X303725Y307952D01*
X302800Y308074D01*
X301875Y307952D01*
X301013Y307595D01*
X300273Y307027D01*
X299705Y306287D01*
X299348Y305425D01*
X299226Y304500D01*
X299348Y303575D01*
X299705Y302713D01*
X300273Y301973D01*
X301013Y301405D01*
X301875Y301048D01*
X301897Y301045D01*
Y290300D01*
X301966Y289954D01*
X302161Y289661D01*
X328824Y262999D01*
X328703Y262390D01*
X328705Y262379D01*
X328244Y262133D01*
X298403Y291974D01*
Y307626D01*
X301474Y310697D01*
X306926D01*
X310293Y307330D01*
X310273Y307027D01*
X309705Y306287D01*
X309348Y305425D01*
X309226Y304500D01*
X309348Y303575D01*
X309705Y302713D01*
X310273Y301973D01*
X311013Y301405D01*
X311875Y301048D01*
X312800Y300926D01*
X313725Y301048D01*
X314587Y301405D01*
X315327Y301973D01*
X315895Y302713D01*
X316252Y303575D01*
X316374Y304500D01*
X316252Y305425D01*
X315895Y306287D01*
X315327Y307027D01*
X314587Y307595D01*
X313725Y307952D01*
X312800Y308074D01*
X312184Y307993D01*
X307939Y312239D01*
X307646Y312434D01*
X307300Y312503D01*
X301100D01*
X300754Y312434D01*
X300461Y312239D01*
X296861Y308639D01*
X296666Y308346D01*
X296597Y308000D01*
Y291600D01*
X296666Y291254D01*
X296861Y290961D01*
X328561Y259261D01*
X328854Y259066D01*
X329200Y258997D01*
X333336D01*
X333681Y258481D01*
X334332Y258046D01*
X335100Y257893D01*
X335868Y258046D01*
X336519Y258481D01*
X336864Y258997D01*
X342726D01*
X346861Y254861D01*
X347154Y254666D01*
X347500Y254597D01*
X353399D01*
X353839Y253939D01*
X354540Y253470D01*
X354559Y253377D01*
X354577Y252946D01*
X354101Y252749D01*
X353564Y252336D01*
X353151Y251799D01*
X352891Y251172D01*
X352869Y251000D01*
X355400D01*
Y250500D01*
X355900D01*
Y247969D01*
X356072Y247991D01*
X356180Y248036D01*
X356432Y247600D01*
X356075Y247325D01*
X355665Y246791D01*
X355407Y246168D01*
X355319Y245500D01*
X355407Y244832D01*
X355665Y244209D01*
X356075Y243675D01*
X356609Y243265D01*
X357232Y243007D01*
X357900Y242919D01*
X358568Y243007D01*
X359191Y243265D01*
X359725Y243675D01*
X360135Y244209D01*
X360393Y244832D01*
X360481Y245500D01*
X360393Y246168D01*
X360135Y246791D01*
X359725Y247325D01*
X359191Y247735D01*
X358568Y247993D01*
X357900Y248081D01*
X357232Y247993D01*
X357128Y247950D01*
X356875Y248387D01*
X357236Y248664D01*
X357649Y249201D01*
X357846Y249677D01*
X358277Y249659D01*
X358370Y249640D01*
X358839Y248939D01*
X359555Y248460D01*
X360400Y248292D01*
X361245Y248460D01*
X361961Y248939D01*
X362440Y249655D01*
X362549Y250207D01*
X364482D01*
X364652Y249707D01*
X364109Y249291D01*
X363257Y248180D01*
X362722Y246887D01*
X362539Y245500D01*
X362722Y244112D01*
X363257Y242820D01*
X364109Y241709D01*
X365220Y240857D01*
X366512Y240322D01*
X367900Y240139D01*
X369287Y240322D01*
X370580Y240857D01*
X371691Y241709D01*
X372543Y242820D01*
X373078Y244112D01*
X373261Y245500D01*
X373078Y246887D01*
X372543Y248180D01*
X371691Y249291D01*
X371148Y249707D01*
X371318Y250207D01*
X372916D01*
X374097Y249026D01*
Y240774D01*
X371326Y238003D01*
X333874D01*
X327291Y244587D01*
X327454Y244832D01*
X327607Y245600D01*
X327454Y246368D01*
X327019Y247019D01*
X326368Y247454D01*
X325600Y247607D01*
X324832Y247454D01*
X324181Y247019D01*
X323746Y246368D01*
X323708Y246177D01*
X323165Y246012D01*
X322058Y247119D01*
X321765Y247315D01*
X321420Y247384D01*
X318603D01*
Y247858D01*
X316044D01*
Y248449D01*
X318603D01*
Y248924D01*
X336927D01*
X337272Y248992D01*
X337565Y249188D01*
X338491Y250114D01*
X339100Y249993D01*
X339868Y250146D01*
X340519Y250581D01*
X340954Y251232D01*
X341107Y252000D01*
X340954Y252768D01*
X340519Y253419D01*
X339868Y253854D01*
X339100Y254007D01*
X338332Y253854D01*
X337681Y253419D01*
X337246Y252768D01*
X337093Y252000D01*
X337214Y251391D01*
X336553Y250730D01*
X325014D01*
X324807Y251230D01*
X328274Y254697D01*
X329536D01*
X329881Y254181D01*
X330532Y253746D01*
X331300Y253593D01*
X332068Y253746D01*
X332719Y254181D01*
X333154Y254832D01*
X333307Y255600D01*
X333154Y256368D01*
X332719Y257019D01*
X332068Y257454D01*
X331300Y257607D01*
X330532Y257454D01*
X329881Y257019D01*
X329536Y256503D01*
X327900D01*
X327900Y256503D01*
X327554Y256434D01*
X327261Y256239D01*
X327261Y256239D01*
X323426Y252403D01*
X318603D01*
Y254551D01*
X316044D01*
Y255142D01*
X318603D01*
Y257898D01*
X316044D01*
Y258488D01*
X318603D01*
Y261244D01*
X316044D01*
Y262311D01*
X316725D01*
Y263598D01*
X315438D01*
Y262917D01*
X314371D01*
Y265476D01*
X311615D01*
Y262917D01*
X311024D01*
Y265476D01*
X308268D01*
Y262917D01*
X307678D01*
Y265476D01*
X307203D01*
Y268736D01*
X307719Y269081D01*
X308154Y269732D01*
X308307Y270500D01*
X308154Y271268D01*
X307719Y271919D01*
X307068Y272354D01*
X306300Y272507D01*
X305532Y272354D01*
X304881Y271919D01*
X304446Y271268D01*
X304293Y270500D01*
X304446Y269732D01*
X304881Y269081D01*
X305397Y268736D01*
Y265476D01*
X304922D01*
Y262917D01*
X304332D01*
Y265476D01*
X301576D01*
Y262917D01*
X300985D01*
Y265476D01*
X298229D01*
Y262917D01*
X297162D01*
Y263598D01*
X295375D01*
X293587D01*
Y262443D01*
X290540D01*
X286461Y266521D01*
Y271346D01*
X284609D01*
Y276153D01*
X286556D01*
Y282846D01*
X285943D01*
Y288126D01*
X286910D01*
Y290077D01*
X290280D01*
X290626Y290146D01*
X290919Y290342D01*
X293539Y292961D01*
X293539Y292961D01*
X293734Y293254D01*
X293803Y293600D01*
Y308026D01*
X299974Y314197D01*
X311826D01*
X319718Y306304D01*
X319705Y306287D01*
X319348Y305425D01*
X319226Y304500D01*
X319348Y303575D01*
X319705Y302713D01*
X319718Y302696D01*
X318056Y301033D01*
X317860Y300740D01*
X317791Y300394D01*
Y293647D01*
X315938D01*
Y286953D01*
X321435D01*
Y286544D01*
X324100D01*
Y290300D01*
Y294056D01*
X321435D01*
Y293647D01*
X319598D01*
Y300020D01*
X320996Y301418D01*
X321013Y301405D01*
X321875Y301048D01*
X322800Y300926D01*
X323725Y301048D01*
X324587Y301405D01*
X325327Y301973D01*
X325895Y302713D01*
X326252Y303575D01*
X326374Y304500D01*
X326252Y305425D01*
X325895Y306287D01*
X325327Y307027D01*
X324587Y307595D01*
X323725Y307952D01*
X322800Y308074D01*
X321875Y307952D01*
X321013Y307595D01*
X320996Y307582D01*
X312839Y315739D01*
X312546Y315934D01*
X312200Y316003D01*
X306671D01*
X306596Y316098D01*
X306539Y316661D01*
X307291Y317414D01*
X307900Y317293D01*
X308668Y317446D01*
X309319Y317881D01*
X309754Y318532D01*
X309907Y319300D01*
X309754Y320068D01*
X309345Y320680D01*
X309390Y320875D01*
X309529Y321180D01*
X317682D01*
Y316965D01*
X327918D01*
Y323797D01*
X339726D01*
X340667Y322856D01*
X340460Y322356D01*
X338194D01*
Y318600D01*
Y314844D01*
X340860D01*
Y315253D01*
X345669D01*
X345877Y315045D01*
Y307610D01*
X343926D01*
Y303870D01*
X349635D01*
Y307610D01*
X347684D01*
Y315420D01*
X347615Y315765D01*
X347419Y316058D01*
X347419Y316058D01*
X346356Y317121D01*
Y321947D01*
X344131D01*
X340739Y325339D01*
X340446Y325534D01*
X340100Y325603D01*
X327918D01*
Y327202D01*
X317682D01*
Y322987D01*
X298674D01*
X296325Y325336D01*
X296366Y325659D01*
X296884Y325784D01*
X296900Y325760D01*
X297649Y325260D01*
X298532Y325084D01*
X299415Y325260D01*
X300164Y325760D01*
X300665Y326509D01*
X300840Y327392D01*
Y327786D01*
X300665Y328669D01*
X300164Y329418D01*
X299415Y329918D01*
X298532Y330094D01*
X297649Y329918D01*
X296900Y329418D01*
X296769Y329221D01*
X296269Y329373D01*
Y331034D01*
X286442D01*
Y331443D01*
X285154D01*
Y327786D01*
Y324128D01*
X286442D01*
Y324538D01*
X294568D01*
X297661Y321445D01*
X297954Y321249D01*
X298300Y321180D01*
X306271D01*
X306410Y320875D01*
X306455Y320680D01*
X306046Y320068D01*
X305893Y319300D01*
X306014Y318691D01*
X305526Y318203D01*
X297800D01*
X297454Y318134D01*
X297161Y317939D01*
X288526Y309303D01*
X280374D01*
X279298Y310380D01*
Y311454D01*
X281235D01*
Y311044D01*
X283900D01*
Y314800D01*
Y318556D01*
X281235D01*
Y318146D01*
X275739D01*
Y311454D01*
X277491D01*
Y310006D01*
Y303874D01*
X275690D01*
Y298165D01*
X279021D01*
Y297756D01*
X280800D01*
Y301020D01*
X281800D01*
Y297756D01*
X283579D01*
Y298165D01*
X286910D01*
Y303874D01*
X285943D01*
Y307497D01*
X288900D01*
X289246Y307566D01*
X289539Y307761D01*
X298174Y316397D01*
X298829D01*
X298904Y316302D01*
X298961Y315739D01*
X292261Y309039D01*
X292066Y308746D01*
X291997Y308400D01*
Y293974D01*
X289906Y291884D01*
X286910D01*
Y293835D01*
X283170D01*
Y288126D01*
X284137D01*
Y282846D01*
X281060D01*
Y283256D01*
X278394D01*
Y279500D01*
Y275744D01*
X281060D01*
Y276153D01*
X282802D01*
Y271346D01*
X280965D01*
Y271756D01*
X278300D01*
Y268000D01*
X277800D01*
D01*
X278300D01*
Y264244D01*
X280965D01*
Y264653D01*
X282802D01*
Y252594D01*
X282871Y252249D01*
X283067Y251956D01*
X288314Y246709D01*
X288193Y246100D01*
X288346Y245332D01*
X288781Y244681D01*
X289432Y244246D01*
X290200Y244093D01*
X290968Y244246D01*
X291619Y244681D01*
X292054Y245332D01*
X292207Y246100D01*
X292054Y246868D01*
X291619Y247519D01*
X290968Y247954D01*
X290200Y248107D01*
X289591Y247986D01*
X284609Y252969D01*
Y264653D01*
X285775D01*
X289528Y260901D01*
X289821Y260705D01*
X290166Y260636D01*
X293997D01*
Y258488D01*
X296556D01*
Y257898D01*
X293997D01*
Y255142D01*
X296556D01*
Y254551D01*
X293997D01*
Y251795D01*
X296556D01*
Y251205D01*
X293997D01*
Y248449D01*
X296556D01*
Y247858D01*
X293997D01*
Y245103D01*
X293587Y244921D01*
Y243634D01*
X295375D01*
Y243134D01*
X295875D01*
Y241346D01*
X296388D01*
X296741Y240992D01*
X296738Y240098D01*
X295875D01*
Y238311D01*
Y236524D01*
X296370D01*
X296723Y236169D01*
X296719Y235276D01*
X295875D01*
Y233488D01*
Y231701D01*
X296351D01*
X296704Y231347D01*
X296701Y230501D01*
X296700Y230500D01*
X263300D01*
Y348500D01*
X381200D01*
X381300Y348400D01*
D02*
G37*
G36*
X313288Y260161D02*
X315847D01*
Y259571D01*
X313288D01*
Y256815D01*
X315847D01*
Y256224D01*
X313288D01*
Y253468D01*
X315847D01*
Y252878D01*
X313288D01*
Y250122D01*
X315847D01*
Y249532D01*
X313288D01*
X312878Y249727D01*
X312698Y250122D01*
Y252878D01*
X309942D01*
Y250620D01*
X309186Y250114D01*
X308660Y249328D01*
X308632Y249185D01*
X308371Y249121D01*
X308111Y249132D01*
X307719Y249719D01*
X307611Y249792D01*
X307599Y250401D01*
X307954Y250932D01*
X308107Y251700D01*
X307954Y252468D01*
X307519Y253119D01*
X306868Y253554D01*
X306108Y253706D01*
X306090Y253733D01*
X305920Y254180D01*
X305919Y254181D01*
X306354Y254832D01*
X306507Y255600D01*
X306446Y255906D01*
X306857Y256406D01*
X308087D01*
Y257693D01*
X306300D01*
Y258693D01*
X308087D01*
Y259980D01*
X308512Y260161D01*
X309351D01*
Y262720D01*
X309942D01*
Y260161D01*
X312698D01*
Y262720D01*
X313288D01*
Y260161D01*
D02*
G37*
G36*
X303249D02*
X303724D01*
Y257449D01*
X303158Y257071D01*
X302860Y257159D01*
X302658Y257287D01*
Y259571D01*
X299902D01*
Y256815D01*
X302343D01*
X302613Y256417D01*
X302635Y256315D01*
X302493Y255600D01*
X302646Y254832D01*
X303081Y254181D01*
X303732Y253746D01*
X304492Y253594D01*
X304510Y253567D01*
X304680Y253120D01*
X304681Y253119D01*
X304246Y252468D01*
X304093Y251700D01*
X304214Y251091D01*
X303853Y250730D01*
X302658D01*
Y252878D01*
X299902D01*
Y252484D01*
X299402Y252217D01*
X299312Y252277D01*
Y252878D01*
X296753D01*
Y253468D01*
X299312D01*
Y256224D01*
X296753D01*
Y256815D01*
X299312D01*
Y259571D01*
X296753D01*
Y260161D01*
X299312D01*
Y262720D01*
X299902D01*
Y260161D01*
X302658D01*
Y262720D01*
X303249D01*
Y260161D01*
D02*
G37*
G36*
X375623Y239141D02*
X375673Y238650D01*
X372426Y235403D01*
X333814D01*
X333524Y235764D01*
X333724Y236197D01*
X371700D01*
X372046Y236266D01*
X372339Y236461D01*
X375191Y239314D01*
X375623Y239141D01*
D02*
G37*
G36*
X362654Y257066D02*
X363000Y256997D01*
X363000Y256997D01*
X375726D01*
X378297Y254426D01*
Y236274D01*
X375426Y233403D01*
X373653D01*
X373501Y233728D01*
X373481Y233903D01*
X377239Y237661D01*
X377434Y237954D01*
X377503Y238300D01*
Y253500D01*
X377503Y253500D01*
X377434Y253846D01*
X377239Y254139D01*
X375239Y256139D01*
X374946Y256334D01*
X374600Y256403D01*
X362401D01*
X362123Y256820D01*
X362483Y257180D01*
X362654Y257066D01*
D02*
G37*
%LPC*%
G36*
X306406Y344488D02*
X301879D01*
X300919Y344297D01*
X300105Y343753D01*
X299561Y342939D01*
X299370Y341979D01*
Y338239D01*
X299561Y337278D01*
X300105Y336465D01*
X300919Y335921D01*
X301879Y335730D01*
X306406D01*
X307366Y335921D01*
X308180Y336465D01*
X308724Y337278D01*
X308915Y338239D01*
Y341979D01*
X308724Y342939D01*
X308180Y343753D01*
X307366Y344297D01*
X306406Y344488D01*
D02*
G37*
G36*
X277666D02*
X273139D01*
X272179Y344297D01*
X271365Y343753D01*
X270821Y342939D01*
X270630Y341979D01*
Y338239D01*
X270821Y337278D01*
X271365Y336465D01*
X272179Y335921D01*
X273139Y335730D01*
X277666D01*
X278626Y335921D01*
X279440Y336465D01*
X279984Y337278D01*
X280175Y338239D01*
Y341979D01*
X279984Y342939D01*
X279440Y343753D01*
X278626Y344297D01*
X277666Y344488D01*
D02*
G37*
G36*
X298434Y343731D02*
X290166D01*
Y335069D01*
X298434D01*
Y343731D01*
D02*
G37*
G36*
X289379D02*
X281111D01*
Y335069D01*
X289379D01*
Y343731D01*
D02*
G37*
G36*
X327918Y344918D02*
X317682D01*
Y340703D01*
X315100D01*
X314754Y340634D01*
X314461Y340439D01*
X310661Y336639D01*
X310466Y336346D01*
X310397Y336000D01*
Y333764D01*
X309881Y333419D01*
X309446Y332768D01*
X309293Y332000D01*
X309446Y331232D01*
X309881Y330581D01*
X310532Y330146D01*
X311300Y329993D01*
X312068Y330146D01*
X312719Y330581D01*
X313154Y331232D01*
X313307Y332000D01*
X313154Y332768D01*
X312719Y333419D01*
X312203Y333764D01*
Y335626D01*
X315474Y338897D01*
X317682D01*
Y334682D01*
X327918D01*
Y338897D01*
X337126D01*
X340661Y335361D01*
X340954Y335166D01*
X341300Y335097D01*
X348965D01*
Y330882D01*
X359202D01*
Y341118D01*
X348965D01*
Y336903D01*
X341674D01*
X338139Y340439D01*
X337846Y340634D01*
X337500Y340703D01*
X327918D01*
Y344918D01*
D02*
G37*
G36*
X284154Y331443D02*
X282867D01*
Y329871D01*
X282367Y329604D01*
X281896Y329918D01*
X281013Y330094D01*
X280129Y329918D01*
X279380Y329418D01*
X278880Y328669D01*
X278705Y327786D01*
Y327392D01*
X278880Y326509D01*
X279380Y325760D01*
X280129Y325260D01*
X281013Y325084D01*
X281896Y325260D01*
X282367Y325574D01*
X282867Y325307D01*
Y324128D01*
X284154D01*
Y327786D01*
Y331443D01*
D02*
G37*
G36*
X376918Y341118D02*
X366682D01*
Y330882D01*
X370897D01*
Y323846D01*
X369013D01*
Y324256D01*
X366347D01*
Y320500D01*
Y316744D01*
X369013D01*
Y317154D01*
X370897D01*
Y309043D01*
X368257D01*
Y306643D01*
X359674D01*
Y307610D01*
X353965D01*
Y304279D01*
X353556D01*
Y302500D01*
X356820D01*
X360083D01*
Y304279D01*
X359674D01*
Y304837D01*
X368257D01*
Y301957D01*
X375343D01*
Y309043D01*
X372703D01*
Y317154D01*
X374509D01*
Y323846D01*
X372703D01*
Y330882D01*
X376918D01*
Y341118D01*
D02*
G37*
G36*
X365347Y324256D02*
X362682D01*
Y321000D01*
X365347D01*
Y324256D01*
D02*
G37*
G36*
X337194Y322356D02*
X334529D01*
Y319100D01*
X337194D01*
Y322356D01*
D02*
G37*
G36*
X365347Y320000D02*
X362682D01*
Y316744D01*
X365347D01*
Y320000D01*
D02*
G37*
G36*
X287565Y318556D02*
X284900D01*
Y315300D01*
X287565D01*
Y318556D01*
D02*
G37*
G36*
X337194Y318100D02*
X334529D01*
Y314844D01*
X337194D01*
Y318100D01*
D02*
G37*
G36*
X287565Y314300D02*
X284900D01*
Y311044D01*
X287565D01*
Y314300D01*
D02*
G37*
G36*
X336753Y308453D02*
X333300D01*
Y305000D01*
X336753D01*
Y308453D01*
D02*
G37*
G36*
X332300D02*
X328847D01*
Y305000D01*
X332300D01*
Y308453D01*
D02*
G37*
G36*
X336753Y304000D02*
X333300D01*
Y300547D01*
X336753D01*
Y304000D01*
D02*
G37*
G36*
X332300D02*
X328847D01*
Y300547D01*
X332300D01*
Y304000D01*
D02*
G37*
G36*
X360083Y301500D02*
X356820D01*
X353556D01*
Y299721D01*
X353965D01*
Y296390D01*
X359674D01*
Y299721D01*
X360083D01*
Y301500D01*
D02*
G37*
G36*
X372300Y299421D02*
Y296000D01*
X375721D01*
X375651Y296532D01*
X375253Y297493D01*
X374619Y298319D01*
X373793Y298953D01*
X372832Y299351D01*
X372300Y299421D01*
D02*
G37*
G36*
X371300D02*
X370768Y299351D01*
X369807Y298953D01*
X368981Y298319D01*
X368347Y297493D01*
X367949Y296532D01*
X367879Y296000D01*
X371300D01*
Y299421D01*
D02*
G37*
G36*
X349635Y300130D02*
X343926D01*
Y296683D01*
X341074Y293831D01*
X340709Y293547D01*
Y293547D01*
X340709Y293546D01*
X335213D01*
Y293956D01*
X332547D01*
Y290200D01*
Y286444D01*
X335213D01*
Y286854D01*
X340709D01*
Y290911D01*
X346188Y296390D01*
X349635D01*
Y300130D01*
D02*
G37*
G36*
X375721Y295000D02*
X372300D01*
Y291579D01*
X372832Y291649D01*
X373793Y292047D01*
X374619Y292681D01*
X375253Y293507D01*
X375651Y294468D01*
X375721Y295000D01*
D02*
G37*
G36*
X371300D02*
X367879D01*
X367949Y294468D01*
X368347Y293507D01*
X368981Y292681D01*
X369807Y292047D01*
X370768Y291649D01*
X371300Y291579D01*
Y295000D01*
D02*
G37*
G36*
X327765Y294056D02*
X325100D01*
Y290800D01*
X327765D01*
Y294056D01*
D02*
G37*
G36*
X331547Y293956D02*
X328882D01*
Y290700D01*
X331547D01*
Y293956D01*
D02*
G37*
G36*
X279430Y293835D02*
X275690D01*
Y288126D01*
X279430D01*
Y293835D01*
D02*
G37*
G36*
X327765Y289800D02*
X325100D01*
Y286544D01*
X327765D01*
Y289800D01*
D02*
G37*
G36*
X331547Y289700D02*
X328882D01*
Y286444D01*
X331547D01*
Y289700D01*
D02*
G37*
G36*
X277394Y283256D02*
X274729D01*
Y280000D01*
X277394D01*
Y283256D01*
D02*
G37*
G36*
Y279000D02*
X274729D01*
Y275744D01*
X277394D01*
Y279000D01*
D02*
G37*
G36*
X277300Y271756D02*
X274635D01*
Y268500D01*
X277300D01*
Y271756D01*
D02*
G37*
G36*
X319013Y265886D02*
X317725D01*
Y264598D01*
X319013D01*
Y265886D01*
D02*
G37*
G36*
X297162D02*
X295875D01*
Y264598D01*
X297162D01*
Y265886D01*
D02*
G37*
G36*
X316725D02*
X315438D01*
Y264598D01*
X316725D01*
Y265886D01*
D02*
G37*
G36*
X294875D02*
X293587D01*
Y264598D01*
X294875D01*
Y265886D01*
D02*
G37*
G36*
X277300Y267500D02*
X274635D01*
Y264244D01*
X277300D01*
Y267500D01*
D02*
G37*
G36*
X319013Y263598D02*
X317725D01*
Y262311D01*
X319013D01*
Y263598D01*
D02*
G37*
G36*
X354900Y250000D02*
X352869D01*
X352891Y249828D01*
X353151Y249201D01*
X353564Y248664D01*
X354101Y248251D01*
X354728Y247991D01*
X354900Y247969D01*
Y250000D01*
D02*
G37*
G36*
X276400Y252068D02*
Y243700D01*
X284768D01*
X284646Y244940D01*
X284138Y246612D01*
X283314Y248154D01*
X282205Y249505D01*
X280854Y250614D01*
X279312Y251438D01*
X277640Y251946D01*
X276400Y252068D01*
D02*
G37*
G36*
X275400D02*
X274160Y251946D01*
X272488Y251438D01*
X270946Y250614D01*
X269595Y249505D01*
X268486Y248154D01*
X267662Y246612D01*
X267154Y244940D01*
X267032Y243700D01*
X275400D01*
Y252068D01*
D02*
G37*
G36*
X319013Y242634D02*
X317725D01*
Y241346D01*
X319013D01*
Y242634D01*
D02*
G37*
G36*
X294875D02*
X293587D01*
Y241346D01*
X294875D01*
Y242634D01*
D02*
G37*
G36*
X347900Y250861D02*
X346513Y250678D01*
X345220Y250143D01*
X344109Y249291D01*
X343257Y248180D01*
X342722Y246887D01*
X342539Y245500D01*
X342722Y244112D01*
X343257Y242820D01*
X344109Y241709D01*
X345220Y240857D01*
X346513Y240322D01*
X347900Y240139D01*
X349288Y240322D01*
X350580Y240857D01*
X351691Y241709D01*
X352543Y242820D01*
X353078Y244112D01*
X353261Y245500D01*
X353078Y246887D01*
X352543Y248180D01*
X351691Y249291D01*
X350580Y250143D01*
X349288Y250678D01*
X347900Y250861D01*
D02*
G37*
G36*
X319013Y240098D02*
X317725D01*
Y238811D01*
X319013D01*
Y240098D01*
D02*
G37*
G36*
X294875D02*
X293587D01*
Y238811D01*
X294875D01*
Y240098D01*
D02*
G37*
G36*
X319013Y237811D02*
X317725D01*
Y236524D01*
X319013D01*
Y237811D01*
D02*
G37*
G36*
X294875D02*
X293587D01*
Y236524D01*
X294875D01*
Y237811D01*
D02*
G37*
G36*
X284768Y242700D02*
X276400D01*
Y234332D01*
X277640Y234454D01*
X279312Y234962D01*
X280854Y235786D01*
X282205Y236895D01*
X283314Y238246D01*
X284138Y239788D01*
X284646Y241460D01*
X284768Y242700D01*
D02*
G37*
G36*
X275400D02*
X267032D01*
X267154Y241460D01*
X267662Y239788D01*
X268486Y238246D01*
X269595Y236895D01*
X270946Y235786D01*
X272488Y234962D01*
X274160Y234454D01*
X275400Y234332D01*
Y242700D01*
D02*
G37*
G36*
X319013Y235276D02*
X317725D01*
Y233988D01*
X319013D01*
Y235276D01*
D02*
G37*
G36*
X294875D02*
X293587D01*
Y233988D01*
X294875D01*
Y235276D01*
D02*
G37*
G36*
X319013Y232988D02*
X317725D01*
Y231701D01*
X319013D01*
Y232988D01*
D02*
G37*
G36*
X294875D02*
X293587D01*
Y231701D01*
X294875D01*
Y232988D01*
D02*
G37*
G36*
X312698Y259571D02*
X309942D01*
Y256815D01*
X312698D01*
Y259571D01*
D02*
G37*
%LPD*%
D16*
X360400Y251110D02*
X373290D01*
X325300Y245300D02*
X333500Y237100D01*
X343600Y318600D02*
Y321200D01*
X340100Y324700D02*
X343600Y321200D01*
X325417Y324700D02*
X340100D01*
X278394Y310006D02*
Y316000D01*
X311300Y332000D02*
Y336000D01*
X315100Y339800D01*
X322800D01*
X294891Y325493D02*
Y327786D01*
Y325493D02*
X298300Y322083D01*
X301280Y244807D02*
X306300D01*
X379200Y235900D02*
Y254800D01*
X375800Y232500D02*
X379200Y235900D01*
X332900Y232500D02*
X375800D01*
X320593Y244807D02*
X332900Y232500D01*
X376100Y257900D02*
X379200Y254800D01*
X298300Y322083D02*
X322800D01*
X371753Y320500D02*
X371800Y320547D01*
Y336000D01*
X285000Y308400D02*
X288900D01*
X280000D02*
X285000D01*
X285040Y308360D01*
Y301020D02*
Y308360D01*
X277560Y301020D02*
X278394Y301854D01*
Y310006D01*
X280000Y308400D01*
X288900D02*
X297800Y317300D01*
X305900D01*
X307900Y319300D01*
X343600Y318600D02*
X346780Y315420D01*
Y305740D02*
Y315420D01*
X322800Y322083D02*
X325417Y324700D01*
X322800Y339800D02*
X337500D01*
X341300Y336000D01*
X354083D01*
X371753Y320500D02*
X371800Y320453D01*
Y305500D02*
Y320453D01*
X371560Y305740D02*
X371800Y305500D01*
X356820Y305740D02*
X371560D01*
X338721Y290200D02*
X346780Y298260D01*
X337953Y290200D02*
X338721D01*
X292900Y293600D02*
Y308400D01*
X290280Y290980D02*
X292900Y293600D01*
X285040Y290980D02*
X290280D01*
X292900Y308400D02*
X299600Y315100D01*
X312200D01*
X322800Y304500D01*
X318694Y300394D02*
X322800Y304500D01*
X318694Y290300D02*
Y300394D01*
X312800Y304500D02*
Y306100D01*
X307300Y311600D02*
X312800Y306100D01*
X301100Y311600D02*
X307300D01*
X297500Y308000D02*
X301100Y311600D01*
X297500Y291600D02*
Y308000D01*
Y291600D02*
X329200Y259900D01*
X335100D01*
X298193Y251760D02*
X300126Y249827D01*
X302800Y290300D02*
Y304500D01*
Y290300D02*
X330710Y262390D01*
X354863Y270500D02*
X355400D01*
X354100D02*
X354863D01*
X348600Y276000D02*
X354100Y270500D01*
X346100Y276000D02*
X348600D01*
X306300Y264098D02*
Y270500D01*
X285040Y280740D02*
Y290980D01*
X283800Y279500D02*
X285040Y280740D01*
X283706Y279406D02*
X283800Y279500D01*
X283706Y268000D02*
Y279406D01*
Y268000D02*
X290166Y261539D01*
X297934D01*
X304500Y255600D02*
X304627Y255727D01*
Y261539D01*
X304400Y255600D02*
X304500D01*
X341770Y265500D02*
X344881Y262390D01*
X334000Y265500D02*
X341770D01*
X300126Y249827D02*
X304227D01*
X306100Y251700D01*
X306154Y248154D02*
X306300Y248300D01*
X297934Y248154D02*
X306154D01*
X297934D02*
X298487Y247600D01*
X344881Y262390D02*
X352290D01*
X355400Y265500D01*
X345100Y260500D02*
X355400D01*
X343210Y262390D02*
X345100Y260500D01*
X330710Y262390D02*
X343210D01*
X335100Y259900D02*
X343100D01*
X347500Y255500D01*
X355400D01*
X362466Y270500D02*
X365576Y273610D01*
X360400Y270500D02*
X362466D01*
X365576Y273610D02*
X375590D01*
X375700Y273500D01*
X336927Y249827D02*
X339100Y252000D01*
X317225Y249827D02*
X336927D01*
X323800Y251500D02*
X327900Y255600D01*
X331300D01*
X360400Y265500D02*
X364800Y261100D01*
Y260500D02*
Y261100D01*
X314666Y251500D02*
X323800D01*
X314666Y244807D02*
X320593D01*
X317225Y246480D02*
X321420D01*
X363000Y257900D02*
X376100D01*
X360400Y260500D02*
X363000Y257900D01*
X283706Y252594D02*
Y268000D01*
Y252594D02*
X290200Y246100D01*
X325300Y245300D02*
X325600Y245600D01*
X321420Y246480D02*
X333400Y234500D01*
X372800D01*
X333500Y237100D02*
X371700D01*
X375000Y240400D01*
Y249400D01*
X376600Y238300D02*
Y253500D01*
X374600Y255500D02*
X376600Y253500D01*
X360400Y255500D02*
X374600D01*
X372800Y234500D02*
X376600Y238300D01*
X373290Y251110D02*
X375000Y249400D01*
X360400Y250500D02*
Y251110D01*
D17*
X306300Y244807D02*
D03*
X301280D02*
D03*
X314666Y261539D02*
D03*
Y258193D02*
D03*
Y254846D02*
D03*
Y251500D02*
D03*
Y248154D02*
D03*
Y244807D02*
D03*
X317225Y264098D02*
D03*
Y259866D02*
D03*
Y256520D02*
D03*
Y253173D02*
D03*
Y249827D02*
D03*
Y246480D02*
D03*
Y243134D02*
D03*
Y238311D02*
D03*
Y233488D02*
D03*
X312993Y264098D02*
D03*
X311320Y261539D02*
D03*
X307973D02*
D03*
X304627D02*
D03*
X301280D02*
D03*
X297934D02*
D03*
X295375Y259866D02*
D03*
Y256520D02*
D03*
X297934Y254846D02*
D03*
X309646Y264098D02*
D03*
X306300D02*
D03*
X302954D02*
D03*
X299607D02*
D03*
X295375D02*
D03*
X297934Y258193D02*
D03*
X295375Y253173D02*
D03*
Y249827D02*
D03*
Y246480D02*
D03*
Y243134D02*
D03*
Y233488D02*
D03*
X311320Y251500D02*
D03*
X306300Y258193D02*
D03*
X301280Y251500D02*
D03*
X297934D02*
D03*
Y248154D02*
D03*
Y244807D02*
D03*
X295375Y238311D02*
D03*
X311320Y244807D02*
D03*
Y258193D02*
D03*
X301280D02*
D03*
D18*
X283706Y268000D02*
D03*
X277800D02*
D03*
X283800Y279500D02*
D03*
X277894D02*
D03*
X278494Y314800D02*
D03*
X284400D02*
D03*
X318694Y290300D02*
D03*
X324600D02*
D03*
X337953Y290200D02*
D03*
X332047D02*
D03*
X371753Y320500D02*
D03*
X365847D02*
D03*
X343600Y318600D02*
D03*
X337694D02*
D03*
D19*
X285040Y290980D02*
D03*
X277560D02*
D03*
Y301020D02*
D03*
X281300D02*
D03*
X285040D02*
D03*
D20*
X346780Y298260D02*
D03*
Y305740D02*
D03*
X356820D02*
D03*
Y302000D02*
D03*
Y298260D02*
D03*
D21*
X371800Y336000D02*
D03*
X354083D02*
D03*
D22*
X322800Y322083D02*
D03*
Y339800D02*
D03*
D23*
X289772Y327786D02*
D03*
X292331D02*
D03*
X294891D02*
D03*
X287213D02*
D03*
X284654D02*
D03*
D24*
X294300Y339400D02*
D03*
X285245D02*
D03*
D44*
X360400Y250500D02*
D03*
Y255500D02*
D03*
Y260500D02*
D03*
Y265500D02*
D03*
Y270500D02*
D03*
X355400D02*
D03*
Y265500D02*
D03*
Y260500D02*
D03*
Y255500D02*
D03*
Y250500D02*
D03*
D45*
X275900Y243200D02*
D03*
D46*
X332800Y304500D02*
D03*
D47*
X322800D02*
D03*
X312800D02*
D03*
X302800D02*
D03*
X371800Y295500D02*
D03*
D48*
X357900Y245500D02*
D03*
X361900Y275500D02*
D03*
X353900D02*
D03*
D49*
X347900Y245500D02*
D03*
Y268000D02*
D03*
X367900Y245500D02*
D03*
Y268000D02*
D03*
D50*
X371800Y305500D02*
D03*
D51*
X275402Y340109D02*
D03*
X304142D02*
D03*
D52*
X298532Y327589D02*
D03*
X281013D02*
D03*
D53*
X310900Y248400D02*
D03*
X311300Y332000D02*
D03*
X307900Y319300D02*
D03*
X346100Y276000D02*
D03*
X306300Y270500D02*
D03*
X304500Y255600D02*
D03*
X334000Y265500D02*
D03*
X306100Y251700D02*
D03*
X306300Y248300D02*
D03*
X330710Y262390D02*
D03*
X335100Y259900D02*
D03*
X375700Y273500D02*
D03*
X339100Y252000D02*
D03*
X331300Y255600D02*
D03*
X364800Y260500D02*
D03*
X290200Y246100D02*
D03*
X325600Y245600D02*
D03*
M02*
